<?xml version="1.0" encoding="UTF-8"?>
<svg id="Calque_1" xmlns="http://www.w3.org/2000/svg" version="1.1" viewBox="0 0 1265.82 180.7">
  <!-- Generator: Adobe Illustrator 29.7.0, SVG Export Plug-In . SVG Version: 2.1.1 Build 138)  -->
  <path d="M503.04,56.02c-8.72,0-15.56,6.78-17.72,22.69h33.72c-1.07-14.93-6.61-22.69-16.01-22.69Z"/>
  <path d="M278.33,56.02c-10.09,0-17.6,9.79-17.6,34.33s7.71,34.34,17.6,34.34,17.59-9.96,17.59-34.34-7.5-34.33-17.59-34.33Z"/>
  <path d="M712.04,56.02c-10.09,0-17.59,9.79-17.59,34.33s7.7,34.34,17.59,34.34,17.59-9.96,17.59-34.34-7.5-34.33-17.59-34.33Z"/>
  <path d="M1051.73,0c4.76,2.5,8.01,7.48,8.01,13.23,0,8.25-6.68,14.93-14.93,14.93s-14.93-6.68-14.93-14.93c0-5.75,3.25-10.73,8.01-13.23H444.32c4.76,2.5,8.01,7.48,8.01,13.23,0,8.25-6.68,14.93-14.93,14.93s-14.93-6.68-14.93-14.93c0-5.75,3.25-10.73,8.01-13.23h-76.92c4.76,2.5,8.01,7.48,8.01,13.23,0,8.25-6.68,14.93-14.93,14.93s-14.93-6.68-14.93-14.93c0-5.75,3.25-10.73,8.01-13.23H122.88v41.25c5.08-2.84,10.98-4.31,17.59-4.31,24.01,0,38.67,19.41,38.67,53.41s-15.07,53.41-38.67,53.41c-6.57,0-12.49-1.5-17.59-4.41v1.2h-21.08V0h-22.92c4.76,2.5,8.01,7.48,8.01,13.23,0,8.25-6.68,14.93-14.93,14.93s-14.93-6.68-14.93-14.93c0-5.75,3.25-10.73,8.01-13.23h-22.87v140.55h-21.08V0H0v180.7h1265.82V0h-214.1ZM82.5,140.55h-21.08V40.16h21.08v100.39ZM232.42,59.23c-9.64,0-16.76,6.86-16.76,22.94v58.37h-21.08V40.16h21.08v3.62c5.01-2.38,10.69-3.62,16.76-3.62v19.07ZM317,140.55h-21.08v-1.2c-5.11,2.91-11.02,4.41-17.59,4.41-23.61,0-38.68-19.41-38.68-53.41s14.66-53.41,38.68-53.41c6.61,0,12.51,1.47,17.59,4.31v-1.1h21.08v100.39ZM357.19,140.55h-21.08V40.16h21.08v100.39ZM414.34,59.23c-9.64,0-16.76,6.86-16.76,22.94v58.37h-21.08V40.16h21.08v3.62c5.01-2.38,10.69-3.62,16.76-3.62v19.07ZM447.95,140.55h-21.08V40.16h21.08v100.39ZM539.87,94.77h-55.16c.93,21.31,8.68,29.91,19.08,29.91,7.93,0,14.88-5.42,14.88-15.85h21.08c0,22.06-17.83,34.93-35.96,34.93-24.67,0-40.25-19.41-40.25-53.41,0-34,15.29-53.41,39.51-53.41,25.61,0,39.8,21.2,36.82,57.83ZM624.49,143.6c-21.56,0-41.11-15.09-41.11-37.4h21.08c0,11.25,9.28,18.43,20.31,18.43,10.1,0,16.51-3.96,16.51-11.36,0-19.43-56.41-7.91-56.41-46.28,0-16.39,15.39-30.04,37.01-30.04s38.51,13.57,38.51,37.56h-21.08c0-12.96-6.83-18.7-17.5-18.7-9.66,0-15.85,5.18-15.85,11.28,0,20.79,56.41,8.46,56.41,46.18,0,18.66-16.53,30.33-37.88,30.33ZM750.71,140.55h-21.08v-1.2c-5.11,2.91-11.02,4.41-17.59,4.41-23.61,0-38.68-19.41-38.68-53.41s14.66-53.41,38.68-53.41c6.61,0,12.51,1.47,17.59,4.31v-1.1h21.08v100.39ZM845.54,140.55h-21.08v-60.24c0-16.59-7.03-24.29-16.76-24.29s-16.76,7.73-16.76,24.29v60.24h-21.08V40.16h21.08v.53c5.01-2.46,10.69-3.74,16.76-3.74,21.43,0,37.85,15.88,37.85,43.36v60.24ZM900.18,143.6c-21.56,0-41.11-15.09-41.11-37.4h21.08c0,11.25,9.28,18.43,20.31,18.43,10.1,0,16.51-3.96,16.51-11.36,0-19.43-56.41-7.91-56.41-46.28,0-16.39,15.39-30.04,37.01-30.04s38.51,13.57,38.51,37.56h-21.08c0-12.96-6.83-18.7-17.5-18.7-9.66,0-15.85,5.18-15.85,11.28,0,20.79,56.41,8.46,56.41,46.18,0,18.66-16.53,30.33-37.88,30.33ZM1019.75,59.23h-9.22v81.32h-21.08V59.23h-9.22v-19.07h9.22V12.45h21.08v27.71h9.22v19.07ZM1055.35,140.55h-21.08V40.16h21.08v100.39ZM1109.7,59.23h-9.22v81.32h-21.08V59.23h-9.22v-19.07h9.22V12.45h21.08v27.71h9.22v19.07ZM1162.09,59.23c-9.64,0-16.76,6.86-16.76,22.94v58.37h-21.08V40.16h21.08v3.62c5.01-2.38,10.69-3.62,16.76-3.62v19.07ZM1245.66,94.77h-55.16c.93,21.31,8.68,29.91,19.08,29.91,7.93,0,14.88-5.42,14.88-15.85h21.08c0,22.06-17.83,34.93-35.96,34.93-24.67,0-40.25-19.41-40.25-53.41,0-34,15.29-53.41,39.51-53.41,25.61,0,39.8,21.2,36.82,57.83Z"/>
  <path d="M158.07,90.35c0-24.54-7.5-34.33-17.59-34.33s-17.59,9.79-17.59,34.33,7.71,34.34,17.59,34.34,17.59-9.96,17.59-34.34Z"/>
  <path d="M1208.84,56.02c-8.72,0-15.56,6.78-17.72,22.69h33.72c-1.07-14.93-6.61-22.69-16.01-22.69Z"/>
</svg>