<?xml version="1.0" encoding="UTF-8"?>
<svg id="Calque_1" xmlns="http://www.w3.org/2000/svg" version="1.1" viewBox="0 0 21.69 25.16">
  <!-- Generator: Adobe Illustrator 29.7.0, SVG Export Plug-In . SVG Version: 2.1.1 Build 138)  -->
  <g id="Tracé_9">
    <path d="M18.65,25.16H3.03C1.4,25.16.04,23.79,0,22.11v-.07s1.2-9.82,1.2-9.82c0-1.72,1.36-3.12,3.03-3.12h13.21c1.67,0,3.03,1.4,3.03,3.13l1.2,9.82v.07c-.04,1.68-1.4,3.05-3.03,3.05Z"/>
  </g>
  <path d="M5.72,7.06l-2-.03C3.77,3.14,6.86.05,10.75,0c1.92-.04,3.7.69,5.07,2.02,1.36,1.33,2.13,3.11,2.15,5.01l-2,.02c-.02-1.37-.57-2.65-1.55-3.61-.98-.96-2.27-1.49-3.64-1.46-2.8.04-5.03,2.26-5.06,5.06Z"/>
</svg>