<?xml version="1.0" encoding="UTF-8"?>
<svg id="Calque_1" xmlns="http://www.w3.org/2000/svg" version="1.1" viewBox="0 0 21.91 25.17">
  <!-- Generator: Adobe Illustrator 29.7.0, SVG Export Plug-In . SVG Version: 2.1.1 Build 138)  -->
  <path d="M21.91,25.17h-2c0-4.94-4.02-8.95-8.95-8.96-4.94,0-8.96,4.02-8.96,8.96H0c0-6.04,4.92-10.96,10.96-10.96,6.04,0,10.95,4.92,10.95,10.96Z"/>
  <path d="M11.3,12.41c-3.42,0-6.21-2.78-6.21-6.21S7.88,0,11.3,0s6.21,2.78,6.21,6.21-2.78,6.21-6.21,6.21ZM11.3,2c-2.32,0-4.21,1.89-4.21,4.21s1.89,4.21,4.21,4.21,4.21-1.89,4.21-4.21-1.89-4.21-4.21-4.21Z"/>
</svg>