<?xml version="1.0" encoding="UTF-8"?>
<svg id="Calque_1" xmlns="http://www.w3.org/2000/svg" version="1.1" viewBox="0 0 1579.3 295.53">
  <!-- Generator: Adobe Illustrator 29.7.0, SVG Export Plug-In . SVG Version: 2.1.1 Build 138)  -->
  <g>
    <path d="M817.31,0c-33.43,29.56-87.54,29.19-126.16.56l-20.74,34.54,57.33,99.4c44.64,43.9,126.36,37.62,160.78-14.39L817.31,0ZM712.37,28.67c33.27,12.45,70.98,10.41,100.25-7.03l42.76,72.14c-26.62,32.47-65.54,35.37-101.06,7.63,0,0-41.95-72.74-41.95-72.74ZM743.53,128.75l7.04-11.72c38.7,26.81,82.52,23.31,112.85-9.68l7.03,11.87c-30.35,35.93-90.11,40.12-126.93,9.53h.01Z"/>
    <g>
      <path d="M816.01,66.79c-8.86,0-16.04,7.18-16.04,16.04h32.08c0-8.86-7.18-16.04-16.04-16.04h0Z"/>
      <path d="M771.39,66.79c-8.86,0-16.04,7.18-16.04,16.04h32.08c0-8.86-7.18-16.04-16.04-16.04h0Z"/>
    </g>
  </g>
  <g>
    <path d="M15.14,82.69c.02,12.08,4.83,16.19,12.02,16.19,6.2,0,11.61-4.16,11.61-11.58C38.77,67.33,0,67.02,0,37.72,0,22.24,12.84,12.38,26.75,12.38c14.83,0,27.12,9.48,27.16,30.07l-15.14.02c-.02-12.13-4.85-16.32-12.02-16.32-6.2,0-11.61,4.16-11.61,11.58,0,20.24,38.77,20.27,38.77,49.58,0,15.48-12.84,25.35-26.75,25.35-14.83-.01-27.11-9.39-27.16-29.94l15.14-.03h0Z"/>
    <path d="M100.68,110.55v-.36c-3.42,1.68-7.29,2.55-11.44,2.55-14.62,0-25.82-10.83-25.82-29.59v-41.1h14.38v41.1c0,11.32,4.79,16.57,11.44,16.57s11.44-5.27,11.44-16.57v-41.1h14.38v68.5s-14.38,0-14.38,0Z"/>
    <path d="M142.6,109.73v.82h-14.38V14.66h14.38v28.15c3.47-1.94,7.49-2.94,12-2.94,16.38,0,26.39,13.24,26.39,36.44s-10.28,36.44-26.39,36.44c-4.49,0-8.52-1.03-12-3.01h0ZM166.61,76.3c0-16.75-5.12-23.43-12-23.43s-12,6.68-12,23.43,5.26,23.43,12,23.43,12-6.79,12-23.43Z"/>
    <path d="M202.66,87.12c0,7.67,6.33,12.57,13.86,12.57,6.9,0,11.26-2.7,11.26-7.75,0-13.26-38.49-5.39-38.49-31.58,0-11.18,10.5-20.5,25.25-20.5s26.28,9.26,26.28,25.63h-14.38c0-8.84-4.66-12.76-11.94-12.76-6.59,0-10.82,3.53-10.82,7.7,0,14.19,38.49,5.77,38.49,31.51,0,12.73-11.28,20.69-25.84,20.69s-28.05-10.3-28.05-25.52h14.38Z"/>
    <path d="M286.78,63.69c0-7.12-4.74-10.82-10.15-10.82-7.23,0-12.58,6.85-12.58,23.43s5.51,23.43,13.08,23.43c5.41,0,10.15-3.7,10.15-10.82h14.38c0,15.05-12.16,23.83-24.54,23.83-16.83,0-27.46-13.24-27.46-36.44s10.43-36.44,26.96-36.44c12.37,0,24.53,8.78,24.53,23.83h-14.38.01Z"/>
    <path d="M311.8,110.55V42.05h14.38v2.47c3.42-1.62,7.29-2.47,11.44-2.47v13.01c-6.58,0-11.44,4.68-11.44,15.65v39.83h-14.38Z"/>
    <path d="M343.17,23.68c0-5.63,4.56-10.19,10.19-10.19s10.19,4.56,10.19,10.19-4.56,10.19-10.19,10.19-10.19-4.56-10.19-10.19ZM346.17,110.55V42.05h14.38v68.5h-14.38Z"/>
    <path d="M388.1,109.73v.82h-14.38V14.66h14.38v28.15c3.47-1.94,7.49-2.94,12-2.94,16.38,0,26.39,13.24,26.39,36.44s-10.28,36.44-26.39,36.44c-4.49,0-8.52-1.03-12-3.01h0ZM412.11,76.3c0-16.75-5.12-23.43-12-23.43s-12,6.68-12,23.43,5.26,23.43,12,23.43,12-6.79,12-23.43Z"/>
    <path d="M434.48,76.3c0-23.2,10.43-36.44,26.96-36.44,17.48,0,27.15,14.46,25.13,39.46h-37.64c.63,14.54,5.92,20.41,13.02,20.41,5.41,0,10.15-3.7,10.15-10.82h14.38c0,15.05-12.16,23.83-24.54,23.83-16.83,0-27.46-13.24-27.46-36.44h0ZM472.36,68.36c-.73-10.18-4.51-15.48-10.92-15.48-5.95,0-10.61,4.63-12.09,15.48h23.01Z"/>
  </g>
  <g>
    <path d="M1072.74,110.55V42.05h14.38v.36c3.42-1.68,7.29-2.55,11.44-2.55,14.62,0,25.82,10.83,25.82,29.59v41.1h-14.38v-41.1c0-11.32-4.79-16.57-11.44-16.57s-11.44,5.27-11.44,16.57v41.1s-14.38,0-14.38,0Z"/>
    <path d="M1134.32,76.3c0-23.2,10.43-36.44,26.96-36.44,17.47,0,27.15,14.46,25.12,39.46h-37.64c.63,14.54,5.92,20.41,13.02,20.41,5.41,0,10.15-3.7,10.15-10.82h14.38c0,15.05-12.16,23.83-24.54,23.83-16.83,0-27.46-13.24-27.46-36.44h.01ZM1172.2,68.36c-.73-10.18-4.51-15.48-10.92-15.48-5.95,0-10.61,4.63-12.09,15.48h23.01Z"/>
    <path d="M1238.4,42.05l9.04,34.45,9.04-34.45h14.81l-18.1,68.5h-11.5l-10.73-40.58-10.72,40.58h-11.5l-18.1-68.5h14.81l9.04,34.45,9.04-34.45h14.87,0Z"/>
    <path d="M1288.84,87.12c0,7.67,6.33,12.57,13.86,12.57,6.9,0,11.26-2.7,11.26-7.75,0-13.26-38.49-5.39-38.49-31.58,0-11.18,10.5-20.5,25.25-20.5s26.28,9.26,26.28,25.63h-14.38c0-8.84-4.66-12.76-11.94-12.76-6.59,0-10.82,3.53-10.82,7.7,0,14.19,38.49,5.77,38.49,31.51,0,12.73-11.28,20.69-25.84,20.69s-28.05-10.3-28.05-25.52h14.38,0Z"/>
    <path d="M1338.39,110.55V14.66h14.38v95.9h-14.38Z"/>
    <path d="M1363.39,76.3c0-23.2,10.43-36.44,26.96-36.44,17.48,0,27.15,14.46,25.13,39.46h-37.64c.63,14.54,5.92,20.41,13.02,20.41,5.41,0,10.15-3.7,10.15-10.82h14.38c0,15.05-12.16,23.83-24.54,23.83-16.83,0-27.46-13.24-27.46-36.44h0ZM1401.27,68.36c-.73-10.18-4.51-15.48-10.92-15.48-5.95,0-10.61,4.63-12.08,15.48h23.01-.01Z"/>
    <path d="M1443.55,23.15v18.91h6.29v13.01h-6.29v55.48h-14.38v-55.48h-6.29v-13.01h6.29v-18.91s14.38,0,14.38,0Z"/>
    <path d="M1477.39,23.15v18.91h6.29v13.01h-6.29v55.48h-14.38v-55.48h-6.29v-13.01h6.29v-18.91s14.38,0,14.38,0Z"/>
    <path d="M1490.25,76.3c0-23.2,10.43-36.44,26.96-36.44,17.48,0,27.15,14.46,25.13,39.46h-37.64c.63,14.54,5.92,20.41,13.02,20.41,5.41,0,10.15-3.7,10.15-10.82h14.38c0,15.05-12.16,23.83-24.54,23.83-16.83,0-27.46-13.24-27.46-36.44h0ZM1528.13,68.36c-.73-10.18-4.51-15.48-10.92-15.48-5.95,0-10.61,4.63-12.08,15.48h23.01-.01Z"/>
    <path d="M1553.47,110.55V42.05h14.38v2.47c3.42-1.62,7.29-2.47,11.44-2.47v13.01c-6.58,0-11.44,4.68-11.44,15.65v39.83h-14.38Z"/>
  </g>
  <g>
    <path d="M549.98,90.2l-6.33,17.81,5.93,2.11-4.36,12.26-5.93-2.11-18.58,52.28-13.56-4.82,18.58-52.28-5.93-2.11,4.36-12.26,5.93,2.11,6.33-17.81,13.56,4.82h0Z"/>
    <path d="M544.02,144.13c11.87-19.94,27.42-26.09,41.8-17.53s16.39,25.17,4.52,45.1c-11.87,19.93-27.66,25.94-41.8,17.53-14.14-8.42-16.39-25.17-4.52-45.1ZM577.98,164.35c8.63-14.51,7.46-22.82,1.18-26.56-6.28-3.74-14.15-.8-22.78,13.7-8.48,14.25-7.33,22.9-1.18,26.56,6.16,3.66,14.3.55,22.78-13.7Z"/>
    <path d="M615.17,191.08c13.01-19.21,28.9-24.44,42.76-15.05s14.88,26.08,1.87,45.29c-13.01,19.21-29.14,24.28-42.76,15.05s-14.88-26.08-1.87-45.29h0ZM647.89,213.25c9.47-13.97,8.79-22.34,2.74-26.44s-14.08-1.63-23.55,12.34c-9.3,13.73-8.67,22.43-2.74,26.44,5.93,4.02,14.24,1.39,23.55-12.34Z"/>
    <path d="M691.42,273.74l.14-.33c-3.8.23-7.71-.46-11.54-2.06-13.49-5.64-19.64-19.96-12.4-37.26l15.87-37.92,13.27,5.55-15.87,37.92c-4.37,10.45-1.97,17.14,4.16,19.71,6.15,2.57,12.59-.45,16.95-10.87l15.87-37.92,13.27,5.55-26.44,63.19-13.27-5.55h-.01Z"/>
    <path d="M726.34,284.35l13.64-67.13,14.1,2.86-.49,2.42c3.67-.91,7.64-.97,11.7-.14l-2.59,12.75c-6.45-1.31-12.14,2.3-14.33,13.06l-7.93,39.03-14.1-2.86h0Z"/>
    <path d="M802.99,270.31c.17,7.67,6.61,12.43,14.14,12.26,6.89-.15,11.2-2.95,11.09-8-.3-13.26-38.6-4.53-39.19-30.71-.25-11.18,10.04-20.73,24.79-21.06,15.08-.34,26.48,8.67,26.85,25.03l-14.38.32c-.2-8.84-4.94-12.65-12.23-12.49-6.59.15-10.74,3.77-10.64,7.94.32,14.18,38.61,4.91,39.19,30.64.28,12.73-10.81,20.94-25.38,21.27-14.71.33-28.28-9.67-28.62-24.88l14.38-.32h0Z"/>
    <path d="M887.31,214.19l18.99,30.14-1.74-35.58,14.12-4.46,3.34,70.77-10.97,3.46-22.44-35.48,1.98,41.93-10.97,3.46-37.87-59.88,14.12-4.46,18.99,30.13-1.74-35.58,14.18-4.47v.02Z"/>
    <path d="M938.52,223.78c-17-15.79-19.6-32.45-8.36-44.56,11.89-12.81,29.08-10.05,46.01,8.44l-25.62,27.58c11.09,9.43,18.99,9.55,23.82,4.35,3.68-3.97,4.2-9.96-1.02-14.8l9.79-10.54c11.03,10.24,9.19,25.13.76,34.2-11.46,12.33-28.39,11.11-45.39-4.68h.01ZM958.48,190.61c-7.96-6.4-14.42-7.23-18.78-2.53-4.05,4.36-3.83,10.93,3.12,19.39l15.66-16.86h0Z"/>
    <path d="M977.78,178.35c-14.9-17.78-15.4-34.63-2.73-45.25,13.4-11.22,30.1-6.35,44.6,14.11l-28.85,24.17c9.82,10.74,17.64,11.85,23.08,7.29,4.15-3.48,5.41-9.35.84-14.81l11.03-9.24c9.66,11.54,5.98,26.08-3.51,34.02-12.9,10.81-29.56,7.48-44.45-10.3h-.01ZM1001.72,147.94c-7.1-7.34-13.4-8.97-18.31-4.85-4.56,3.82-5.17,10.36.68,19.63l17.64-14.77h-.01Z"/>
    <path d="M1022.51,84.94l7.68,17.27,5.75-2.56,5.29,11.89-5.75,2.56,22.55,50.7-13.14,5.85-22.55-50.7-5.75,2.56-5.29-11.89,5.75-2.56-7.68-17.28,13.14-5.84h0Z"/>
  </g>
</svg>