<?xml version="1.0" encoding="UTF-8"?>
<svg id="Calque_1" xmlns="http://www.w3.org/2000/svg" version="1.1" viewBox="0 0 1594.23 290.76">
  <!-- Generator: Adobe Illustrator 29.7.0, SVG Export Plug-In . SVG Version: 2.1.1 Build 138)  -->
  <g>
    <path d="M818.4,0c-33.43,29.56-87.54,29.19-126.16.56l-20.74,34.54,57.33,99.4c44.64,43.9,126.36,37.62,160.78-14.39L818.4,0ZM713.46,28.67c33.27,12.45,70.98,10.41,100.25-7.03l42.76,72.14c-26.62,32.47-65.54,35.37-101.06,7.63l-41.95-72.74ZM744.62,128.75l7.04-11.72c38.7,26.81,82.52,23.31,112.85-9.68l7.03,11.87c-30.35,35.93-90.11,40.12-126.93,9.53Z"/>
    <g>
      <path d="M817.1,66.79c-8.86,0-16.04,7.18-16.04,16.04h32.08c0-8.86-7.18-16.04-16.04-16.04Z"/>
      <path d="M772.48,66.79c-8.86,0-16.04,7.18-16.04,16.04h32.08c0-8.86-7.18-16.04-16.04-16.04Z"/>
    </g>
  </g>
  <g>
    <path d="M562.49,109.38l-51.8,49.06-12.99-7.6,17.35-69.2,12.83,7.5-10.94,43.69,32.71-30.95,12.83,7.5Z"/>
    <path d="M548.34,141.73c13.4-18.94,29.39-23.84,43.06-14.17,13.66,9.67,14.35,26.38.95,45.32s-29.62,23.68-43.06,14.17c-13.43-9.51-14.35-26.38-.95-45.32ZM580.61,164.57c9.75-13.78,9.24-22.16,3.27-26.38-5.97-4.22-14.04-1.92-23.79,11.86-9.58,13.54-9.12,22.25-3.27,26.38,5.85,4.14,14.21,1.67,23.79-11.86Z"/>
    <path d="M612.71,228.38l.2-.3c-3.78-.49-7.49-1.91-10.94-4.2-12.18-8.08-15.53-23.3-5.16-38.94l22.73-34.25,11.99,7.95-22.72,34.25c-6.26,9.44-5.17,16.46.37,20.14,5.55,3.68,12.45,1.93,18.7-7.49l22.73-34.25,11.99,7.95-37.87,57.08-11.99-7.95Z"/>
    <path d="M663.31,230.96c-3.31,6.92.28,14.07,7.08,17.33,6.22,2.98,11.33,2.43,13.51-2.13,5.72-11.96-32.39-21.48-21.09-45.1,4.83-10.08,18.32-13.96,31.63-7.59,13.6,6.51,19.71,19.7,12.64,34.46l-12.98-6.21c3.82-7.98,1.31-13.52-5.26-16.66-5.95-2.85-11.28-1.49-13.08,2.27-6.12,12.8,32.23,21.82,21.12,45.04-5.5,11.49-19.11,13.8-32.25,7.51-13.27-6.35-20.86-21.4-14.29-35.13l12.98,6.21h0Z"/>
    <path d="M742.33,250.33c2.83-23.03,14.38-34.95,30.64-32.95,4.48.55,8.35,2.04,11.55,4.38l.09-.74,14.28,1.76-8.36,67.99-14.28-1.76.1-.81c-3.7,1.54-7.83,2.07-12.28,1.52-15.99-1.97-24.58-16.36-21.74-39.39ZM780.43,255.01c2.04-16.62-2.22-23.88-9.05-24.72-6.84-.84-12.73,5.16-14.77,21.79-2.03,16.51,2.36,23.89,9.06,24.72,6.7.82,12.74-5.28,14.77-21.79ZM772.49,188.1l14.8,19.8-9.88,7.02-14.8-19.8,9.88-7.02Z"/>
    <path d="M854.4,286.81l-21.06-65.18,13.69-4.42.11.34c2.74-2.65,6.16-4.67,10.1-5.94,13.91-4.49,27.9,2.37,33.67,20.21l12.64,39.11-13.69,4.42-12.64-39.11c-3.48-10.77-9.66-14.29-15.98-12.25-6.34,2.05-9.26,8.53-5.79,19.29l12.64,39.11-13.69,4.42Z"/>
    <path d="M909.04,229.02c-13.75-18.69-13.36-35.41.12-45.33,13.48-9.92,29.56-5.3,43.31,13.39,13.75,18.69,13.13,35.58-.12,45.33-13.26,9.75-29.56,5.3-43.31-13.39ZM940.88,205.6c-10-13.6-18.12-15.76-24.01-11.42s-6.25,12.72,3.75,26.32c9.83,13.36,18.24,15.67,24.01,11.42,5.77-4.24,6.07-12.96-3.76-26.32Z"/>
    <path d="M939.48,137.14l12.35,14.31,4.76-4.11,8.5,9.85-4.76,4.11,36.24,42.01-10.89,9.4-36.24-42.01-4.76,4.11-8.5-9.85,4.76-4.11-12.35-14.32,10.89-9.4Z"/>
    <path d="M1008.47,192.99l-43.78-52.68,11.06-9.19,1.58,1.9c1.59-3.43,4.03-6.56,7.22-9.21l8.32,10.01c-5.06,4.21-5.81,10.91,1.21,19.35l25.45,30.63-11.06,9.19Z"/>
    <path d="M1010.84,145.63c-12.7-19.42-11.21-36.21,2.62-45.26,14.63-9.56,30.64-2.76,42.63,19.27l-31.5,20.6c8.49,11.83,16.13,13.84,22.07,9.96,4.53-2.96,6.47-8.65,2.58-14.61l12.04-7.87c8.24,12.6,2.86,26.6-7.49,33.38-14.09,9.21-30.24,3.95-42.93-15.47h0ZM1038.2,118.24c-6.18-8.13-12.25-10.49-17.62-6.98-4.98,3.25-6.35,9.68-1.64,19.57l19.26-12.59Z"/>
  </g>
  <g>
    <path d="M39.08,110.58l-2.79-13.62h-18.11l-2.79,13.62H0L19.62,14.66h15.21l19.63,95.93h-15.39ZM33.94,85.49l-6.71-32.76-6.7,32.76h13.41Z"/>
    <path d="M76.8,109.74v.82h-14.38V14.66h14.38v28.15c3.47-1.94,7.49-2.94,12-2.94,16.38,0,26.39,13.24,26.39,36.44s-10.28,36.44-26.39,36.44c-4.49,0-8.52-1.03-12-3.01ZM100.81,76.3c0-16.75-5.12-23.43-12-23.43s-12,6.68-12,23.43,5.26,23.43,12,23.43,12-6.79,12-23.43Z"/>
    <path d="M123.18,76.3c0-23.2,10.22-36.44,26.95-36.44s26.95,13.24,26.95,36.44-10.5,36.44-26.95,36.44-26.95-13.24-26.95-36.44ZM162.7,76.3c0-16.88-5.26-23.43-12.57-23.43s-12.57,6.54-12.57,23.43,5.41,23.43,12.57,23.43,12.57-6.84,12.57-23.43Z"/>
    <path d="M187.63,110.55V42.06h14.38v.36c3.42-1.68,7.29-2.55,11.44-2.55,14.62,0,25.82,10.83,25.82,29.59v41.1h-14.38v-41.1c0-11.32-4.79-16.57-11.44-16.57s-11.44,5.27-11.44,16.57v41.1h-14.38Z"/>
    <path d="M251.75,110.55V42.06h14.38v.36c3.42-1.68,7.29-2.55,11.44-2.55,14.62,0,25.82,10.83,25.82,29.59v41.1h-14.38v-41.1c0-11.32-4.79-16.57-11.44-16.57s-11.44,5.27-11.44,16.57v41.1h-14.38Z"/>
    <path d="M313.33,76.31c0-23.2,10.43-36.44,26.96-36.44,17.48,0,27.15,14.46,25.13,39.46h-37.64c.63,14.54,5.92,20.41,13.02,20.41,5.41,0,10.15-3.7,10.15-10.82h14.38c0,15.05-12.16,23.83-24.54,23.83-16.83,0-27.46-13.24-27.46-36.44h0ZM351.21,68.36c-.73-10.18-4.51-15.48-10.92-15.48-5.95,0-10.61,4.63-12.09,15.48h23.01Z"/>
    <path d="M423.68,110.55h-51.15l-.09-12.99,33.14-42.5h-33.54v-13.01h51.2v13.04l-33.08,42.45h33.53v13Z"/>
  </g>
  <g>
    <path d="M1087.68,110.55V42.05h14.38v.36c3.42-1.68,7.29-2.55,11.44-2.55,14.62,0,25.82,10.83,25.82,29.59v41.1h-14.38v-41.1c0-11.32-4.79-16.57-11.44-16.57s-11.44,5.27-11.44,16.57v41.1h-14.38Z"/>
    <path d="M1149.26,76.3c0-23.2,10.43-36.44,26.96-36.44,17.48,0,27.15,14.46,25.13,39.46h-37.64c.63,14.54,5.92,20.41,13.02,20.41,5.41,0,10.15-3.7,10.15-10.82h14.38c0,15.05-12.16,23.83-24.54,23.83-16.83,0-27.46-13.24-27.46-36.44h0ZM1187.14,68.36c-.73-10.18-4.51-15.48-10.92-15.48-5.95,0-10.61,4.63-12.08,15.48h23.01Z"/>
    <path d="M1253.33,42.05l9.04,34.45,9.04-34.45h14.81l-18.1,68.5h-11.5l-10.72-40.58-10.72,40.58h-11.5l-18.1-68.5h14.81l9.04,34.45,9.04-34.45h14.87Z"/>
    <path d="M1303.77,87.12c0,7.67,6.33,12.57,13.86,12.57,6.89,0,11.26-2.7,11.26-7.75,0-13.26-38.49-5.39-38.49-31.58,0-11.18,10.5-20.5,25.25-20.5s26.28,9.26,26.28,25.63h-14.38c0-8.84-4.66-12.76-11.94-12.76-6.59,0-10.82,3.53-10.82,7.7,0,14.19,38.49,5.77,38.49,31.51,0,12.73-11.28,20.69-25.84,20.69s-28.05-10.3-28.05-25.52h14.38,0Z"/>
    <path d="M1353.32,110.55V14.66h14.38v95.9h-14.38Z"/>
    <path d="M1378.32,76.3c0-23.2,10.43-36.44,26.96-36.44,17.48,0,27.15,14.46,25.13,39.46h-37.64c.63,14.54,5.92,20.41,13.02,20.41,5.41,0,10.15-3.7,10.15-10.82h14.38c0,15.05-12.16,23.83-24.54,23.83-16.83,0-27.46-13.24-27.46-36.44h0ZM1416.2,68.36c-.73-10.18-4.51-15.48-10.92-15.48-5.95,0-10.61,4.63-12.08,15.48h23.01Z"/>
    <path d="M1458.49,23.15v18.9h6.29v13.01h-6.29v55.48h-14.38v-55.48h-6.29v-13.01h6.29v-18.9h14.38Z"/>
    <path d="M1492.33,23.15v18.9h6.29v13.01h-6.29v55.48h-14.38v-55.48h-6.29v-13.01h6.29v-18.9h14.38Z"/>
    <path d="M1505.18,76.3c0-23.2,10.43-36.44,26.96-36.44,17.47,0,27.15,14.46,25.13,39.46h-37.64c.63,14.54,5.92,20.41,13.02,20.41,5.41,0,10.15-3.7,10.15-10.82h14.38c0,15.05-12.16,23.83-24.54,23.83-16.83,0-27.46-13.24-27.46-36.44h0ZM1543.06,68.36c-.73-10.18-4.51-15.48-10.92-15.48-5.95,0-10.61,4.63-12.08,15.48h23.01Z"/>
    <path d="M1568.41,110.55V42.05h14.38v2.47c3.42-1.62,7.29-2.47,11.44-2.47v13.01c-6.58,0-11.44,4.68-11.44,15.65v39.83h-14.38Z"/>
  </g>
  <path d="M486.93,113.26l-47.14-17.09,4.44-12.23,47.14,17.09-4.44,12.24Z"/>
</svg>